<?xml version="1.0" standalone="yes"?><svg xmlns="http://www.w3.org/2000/svg" xmlns:xlink="http://www.w3.org/1999/xlink" version="1.1" x="0px" y="0px" viewBox="0 0 50 62.5" enable-background="new 0 0 50 50" xml:space="preserve" style="zoom: 0.125;"><g><path fill="#ef4565" d="M12.8354855,13.1698999 c3.2929001,-1.2453995 6.2609997,-4.4647999 8.5844994,-9.3132 C22.1123848,2.3987 23.4036846,1 25.0058861,1 c1.3806992,0 2.7176991,1.0696001 3.5774002,2.8626001 c2.3330994,4.8435001 5.3012009,8.0619001 8.5823975,9.3072996 c0.2695999,0.1018 0.4869003,0.4942999 0.5401001,0.9758997 c0.1529007,1.3971004 -0.8903999,1.8204002 -2.8125,2.5328007 c-2.625,0.9694996 -6.1383991,1.5032005 -9.8915977,1.5032005 c-3.6729012,0 -9.1746006,-0.6156006 -12.2259007,-2.6463013 C12.054286,15.0622997 12.1903858,13.4138002 12.8354855,13.1698999  z M9.3602858,23.5799007 c0.0746002,-0.6749001 0.3888998,-1.2108002 0.8053999,-1.3679008 c1.7077999,-0.6515007 3.3441,-1.7439995 4.8708,-3.2518997 c2.3664989,0.7775993 5.8955994,1.4034996 9.9652004,1.4034996 c4.050499,0 7.5853996,-0.6199989 9.9736977,-1.4034996 c3.8843002,3.8369007 5.4285011,2.4645004 5.6665001,4.6166 c0.0906029,0.8181992 -0.1778984,1.5851994 -0.6646996,1.9053993 c-3.8747978,2.5221004 -10.3707981,3.2487011 -14.9754982,3.2487011 c-4.5879002,0 -11.1028004,-0.7315006 -14.9660006,-3.2476997 C9.5424852,25.1602993 9.2707853,24.3953991 9.3602858,23.5799007  z M28.2785854,49 h-6.5454006 v-7.7481995 c0.1169014,0.0064011 2.1282005,0.0900002 3.2727013,0.0900002 c1.2125988,0 3.1623993,-0.0839996 3.2726994,-0.0900002 V49  z M43.2327843,35.1958008 c-2.9828987,1.9720001 -8.0657005,3.3584976 -13.9452991,3.8037987 c-2.8125,0.2131004 -5.7507,0.2131004 -8.5632,0 c-5.8880997,-0.4458008 -10.9750996,-1.8322983 -13.9601994,-3.8059006 c-0.6659002,-0.4372978 -1.0345001,-1.4510002 -0.9173002,-2.5221977 c0.0788999,-0.7201004 0.4155002,-1.5841007 1.1143999,-1.8494015 c1.3965998,-0.5198994 2.7635002,-1.3055992 4.0696001,-2.3400002 c4.0176001,1.7686996 9.5623007,2.4311008 13.9709005,2.4311008 c4.3796997,0 9.9622002,-0.6676006 13.9782982,-2.4311008 c1.3082008,1.0344009 2.6729012,1.8201008 4.0632019,2.3373013 c0.6998978,0.2663994 1.0333977,1.1297989 1.1111984,1.8494987 C44.2523842,33.5615997 44.0051842,34.6887016 43.2327843,35.1958008  z "></path></g></svg>